# xmcd
#
# Track frame offsets:
#	150
#	11981
#	31892
#	48468
#	67653
#	82965
#	97615
#	120770
#	132863
#	146169
#	155906
#	170610
#	182348
#	196309
#	206892
#	222906
#	238729
#	250827
#	264647
#	281948
#
# Disc length: 3932 seconds
#
# Revision: 1
# Processed by: cddbd v1.5.2PL0 Copyright (c) Steve Scherf et al.
# Submitted via: audiograbber 1.83.01
#
DISCID=1e0f5a14
DTITLE=Topp Twins - The Topp Twins - The Very Best Of
DYEAR=2014
DGENRE=Country
TTITLE0=Untouchable Girls
TTITLE1=Milestones
TTITLE2=Calf Club Day
TTITLE3=History
TTITLE4=Mustang Mountain
TTITLE5=Sad Dog
TTITLE6=Tomboy
TTITLE7=Old Faithful and I
TTITLE8=Nga Iwi E
TTITLE9=No War In My Heart
TTITLE10=Throw Down Your Guns
TTITLE11=Cold Cold Sweat
TTITLE12=Friday Night Get Up
TTITLE13=Lower
TTITLE14=Big Ole Moon
TTITLE15=Shepherds Farewell
TTITLE16=Honky Tonk Angel
TTITLE17=My Pinto Pony and I
TTITLE18=Songs Of Home
TTITLE19=Paradise
EXTD=
EXTT0=
EXTT1=
EXTT2=
EXTT3=
EXTT4=
EXTT5=
EXTT6=
EXTT7=
EXTT8=
EXTT9=
EXTT10=
EXTT11=
EXTT12=
EXTT13=
EXTT14=
EXTT15=
EXTT16=
EXTT17=
EXTT18=
EXTT19=
PLAYORDER=
